<?xml version="1.0" standalone="no"?>
<!DOCTYPE svg PUBLIC "-//W3C//DTD SVG 20010904//EN"
 "http://www.w3.org/TR/2001/REC-SVG-20010904/DTD/svg10.dtd">
<svg version="1.0" xmlns="http://www.w3.org/2000/svg"
 width="1920.000000pt" height="1069.000000pt" viewBox="0 0 1920.000000 1069.000000"
 preserveAspectRatio="xMidYMid meet">
<metadata>
Created by potrace 1.16, written by Peter Selinger 2001-2019
</metadata>
<g transform="translate(0.000000,1069.000000) scale(0.100000,-0.100000)"
fill="#000000" stroke="none">
<path d="M0 5345 l0 -5345 9600 0 9600 0 0 5345 0 5345 -9600 0 -9600 0 0
-5345z m9685 1557 c16 -20 50 -59 75 -87 25 -29 61 -71 80 -95 19 -23 45 -54
57 -69 l21 -26 -21 -12 c-21 -12 -20 -12 13 -14 l35 -1 -30 -8 c-16 -4 -23 -9
-15 -10 8 -1 -3 -8 -25 -15 -40 -13 -40 -13 -15 -23 l25 -11 -30 -1 c-26 -1
-27 -3 -10 -10 16 -7 10 -9 -25 -11 l-45 -2 40 -7 40 -7 -50 -2 c-49 -3 -49
-3 -17 -12 18 -5 30 -14 27 -19 -7 -12 -72 -30 -106 -30 -18 0 -28 -6 -32 -20
-3 -11 -20 -26 -37 -34 l-32 -13 33 -8 34 -7 -50 -13 c-27 -7 -41 -14 -30 -15
11 -2 2 -6 -20 -10 -31 -6 -34 -7 -12 -9 41 -2 32 -21 -10 -22 -31 0 -34 -2
-18 -9 17 -7 14 -9 -15 -10 l-35 -2 28 -10 c15 -5 27 -13 27 -16 0 -8 -41 -36
-52 -37 -3 0 -10 -3 -14 -7 -4 -5 -20 -8 -34 -8 -15 0 -33 -7 -40 -15 -7 -8
-20 -15 -29 -16 -12 0 -12 -2 3 -8 19 -7 18 -8 -5 -15 l-24 -8 24 -7 24 -7
-26 -17 c-14 -9 -46 -17 -69 -17 -62 0 -78 -14 -36 -30 l33 -13 -60 -11 c-33
-6 -66 -15 -72 -19 -22 -14 -14 -26 20 -30 26 -3 24 -4 -13 -6 -58 -2 -90 -20
-40 -22 l35 -2 -35 -7 -35 -6 28 -8 28 -8 -21 -23 -20 -22 42 -54 c85 -106
112 -129 149 -128 l34 1 -30 8 -30 8 35 2 c19 1 46 6 60 10 25 8 25 8 2 9 -35
2 -16 21 21 21 33 0 28 14 -8 23 -12 3 -3 6 20 7 l40 3 -40 7 c-39 7 -38 7 17
9 46 1 62 6 84 26 17 16 22 25 13 26 -8 1 -4 4 9 7 33 10 28 26 -10 32 -26 4
-29 7 -15 13 10 4 37 8 60 9 l42 1 -45 6 -45 6 25 16 c14 9 51 20 83 24 31 3
57 10 57 15 0 13 -30 20 -58 14 -21 -5 -24 -4 -16 5 6 7 38 15 70 18 34 4 69
14 83 24 l24 19 -44 2 -44 1 40 5 40 4 -30 12 -30 13 23 12 c12 7 45 15 73 18
40 5 52 11 59 29 5 12 17 24 27 27 12 3 7 6 -12 7 -22 2 -15 5 25 11 65 11 83
25 57 44 -16 12 -9 14 58 20 42 4 84 4 94 -1 16 -8 66 -65 141 -158 8 -10 22
-26 30 -35 8 -9 26 -32 40 -51 13 -19 31 -40 40 -47 13 -10 9 -13 -20 -13 -36
-2 -34 -4 13 -14 l28 -7 -58 -49 c-45 -38 -66 -50 -98 -52 -25 -2 -39 -8 -38
-15 2 -7 -3 -13 -11 -13 -21 0 -40 -27 -24 -33 7 -3 -5 -6 -27 -8 l-40 -2 35
-7 c33 -7 31 -8 -20 -10 -55 -3 -55 -3 -15 -10 l40 -6 -55 -9 c-49 -8 -52 -10
-25 -15 l30 -6 -28 -7 c-15 -4 -25 -12 -22 -17 6 -10 -21 -15 -60 -11 -35 3
-2 -17 35 -22 26 -3 19 -5 -25 -7 l-60 -3 45 -7 c25 -4 34 -8 21 -8 -15 -2
-21 -7 -18 -16 8 -21 -26 -47 -80 -62 -41 -11 -43 -13 -18 -14 l30 -1 -28 -24
c-15 -14 -39 -25 -52 -25 -32 0 -56 -10 -49 -21 3 -5 -5 -9 -18 -10 -23 -1
-23 -1 2 -8 20 -6 14 -9 -32 -15 -61 -8 -80 -26 -28 -26 17 0 30 -4 30 -10 0
-5 -16 -10 -35 -10 -19 0 -35 -4 -35 -10 0 -5 10 -10 22 -10 18 0 16 -5 -20
-36 -23 -19 -42 -40 -42 -46 0 -12 87 -121 152 -189 43 -45 43 -46 101 -41 31
2 57 8 57 13 0 5 -8 9 -17 10 -15 0 -15 2 2 9 19 8 19 9 -2 9 -12 1 -25 5 -28
11 -6 10 6 14 90 29 28 5 40 9 28 10 -36 2 -37 21 -1 22 l33 1 -30 8 c-26 7
-22 8 25 10 l55 3 -45 7 -45 7 40 2 c61 4 78 12 134 61 l52 45 -48 6 -48 6 55
2 c58 1 110 21 58 21 -35 0 -59 10 -52 21 3 5 18 9 34 9 41 0 65 10 48 21 -9
6 -3 9 17 10 29 1 29 1 5 8 -21 6 -16 8 27 14 32 4 61 14 75 27 l22 20 -35 1
c-32 1 -32 2 11 11 59 12 92 29 86 44 -3 7 8 14 25 18 41 8 36 26 -8 28 l-38
1 40 5 40 4 -30 13 -30 13 27 1 c35 1 59 11 52 22 -3 5 7 9 23 10 25 0 26 1 8
9 -18 8 -18 9 5 9 14 1 36 5 50 9 22 6 19 8 -20 13 l-45 6 50 3 c45 2 47 3 20
10 l-30 8 32 1 c17 0 35 -3 38 -9 3 -5 18 -7 34 -4 24 5 34 -1 79 -53 73 -83
86 -99 124 -145 18 -23 48 -57 65 -77 18 -20 33 -40 33 -45 0 -4 11 -17 25
-28 l26 -20 -31 -29 c-19 -18 -40 -29 -59 -29 -41 0 -61 -9 -54 -26 3 -9 -2
-14 -18 -15 -24 -2 -24 -2 -1 -6 25 -5 30 -23 6 -23 -8 0 -12 -4 -9 -10 4 -6
-12 -10 -42 -10 -26 0 -55 -5 -63 -10 -12 -8 -10 -10 10 -10 48 -1 55 -16 17
-39 -19 -11 -44 -21 -55 -21 -11 0 -29 -3 -39 -7 -15 -6 -13 -9 12 -14 28 -6
28 -7 -10 -8 -37 -2 -38 -3 -15 -12 24 -10 24 -11 6 -24 -10 -8 -39 -17 -65
-21 -40 -7 -43 -8 -21 -15 23 -6 22 -7 -10 -9 l-35 -3 35 -7 c33 -7 31 -8 -20
-10 -51 -2 -53 -3 -20 -10 l35 -7 -40 -2 c-38 -2 -39 -2 -17 -15 21 -11 22
-14 8 -26 -9 -7 -42 -16 -74 -20 -31 -4 -51 -8 -44 -9 19 -2 -7 -26 -38 -36
-24 -8 -23 -9 15 -20 39 -13 40 -13 10 -16 -16 -1 -40 -1 -52 0 -13 1 -23 -3
-23 -8 0 -6 -7 -8 -15 -5 -8 4 -15 4 -15 0 0 -3 15 -10 33 -15 l32 -9 -35 -2
-35 -3 35 -7 35 -7 -27 -11 c-16 -6 -28 -16 -28 -21 0 -6 -6 -8 -14 -5 -8 3
-16 -3 -19 -15 -3 -14 -11 -19 -20 -15 -8 3 -18 1 -22 -5 -3 -6 -19 -11 -36
-11 -16 0 -29 -4 -29 -9 0 -5 6 -9 13 -8 6 0 21 -1 32 -2 36 -3 -6 -21 -50
-21 -45 0 -88 -19 -45 -20 14 0 31 -4 39 -9 11 -7 4 -12 -25 -20 -21 -6 -48
-11 -59 -12 -17 -1 -16 -2 5 -9 23 -7 23 -8 -10 -11 -30 -2 -32 -3 -8 -6 18
-3 25 -9 21 -19 -3 -8 -11 -14 -18 -14 -7 0 -16 -7 -19 -16 -4 -12 -14 -14
-36 -9 -22 5 -32 3 -36 -9 -3 -9 -15 -16 -25 -16 -10 0 -19 -4 -19 -9 0 -5 -8
-12 -17 -14 -10 -3 0 -6 22 -7 32 -1 36 -3 20 -10 -11 -5 -36 -9 -55 -9 -21
-1 -30 -4 -23 -9 8 -5 -4 -13 -32 -21 -46 -13 -52 -30 -12 -33 12 0 2 -4 -23
-8 l-45 -7 45 -3 c25 -1 37 -4 28 -7 -10 -2 -18 -9 -18 -14 0 -5 -19 -9 -42
-9 -24 0 -50 -5 -58 -10 -13 -8 -12 -11 5 -24 27 -19 15 -28 -45 -34 -52 -5
-70 -27 -27 -35 12 -2 -5 -5 -38 -6 -76 -1 -51 -25 -349 333 -81 97 -157 187
-169 200 -12 12 -35 40 -52 61 -16 21 -35 43 -40 49 -6 6 -35 40 -65 76 -30
36 -71 83 -90 106 -19 22 -57 67 -85 99 -27 32 -56 64 -62 71 -7 7 -13 16 -13
21 0 4 -21 31 -46 58 -26 28 -80 91 -122 140 -41 50 -81 95 -88 101 -8 6 -14
14 -14 18 0 4 -28 40 -62 79 -35 39 -67 77 -73 83 -59 69 -83 101 -83 109 0 5
-9 12 -19 16 -17 7 -16 8 2 9 27 1 77 29 53 30 -26 0 -22 28 5 33 18 3 16 5
-7 6 -44 2 -22 15 37 22 l52 6 -44 2 -44 1 22 19 c12 11 46 22 84 26 50 6 57
9 37 16 l-25 7 24 8 c23 7 24 8 5 15 -13 5 -5 8 27 8 67 1 96 36 37 44 -31 4
-30 4 7 6 l40 2 -29 12 c-24 11 -26 14 -14 25 8 6 43 15 77 18 38 4 60 11 58
18 -2 6 5 19 16 29 20 17 20 17 -4 18 -13 1 3 7 35 13 63 12 81 29 44 41 -19
6 -15 9 25 14 26 4 55 15 64 24 16 16 15 17 -15 17 -18 0 -32 5 -32 10 0 24
53 59 98 66 26 4 55 15 64 25 17 17 16 18 -15 22 -27 3 -25 4 13 6 38 3 41 4
20 11 -23 7 -22 8 10 10 32 1 33 2 13 12 -22 11 -22 11 12 29 19 11 47 20 62
20 25 2 25 2 -7 9 -32 7 -31 7 18 9 36 1 51 5 46 12 -4 7 -20 8 -41 4 -24 -4
-33 -3 -28 4 3 6 25 11 48 12 33 0 38 2 22 9 -18 8 -17 9 8 9 17 1 27 6 27 16
0 8 9 15 19 15 29 0 35 18 9 23 -13 2 -4 5 22 7 l45 3 -40 7 -40 7 55 3 55 3
-40 7 -40 7 45 2 45 2 -30 13 -30 13 53 7 c49 6 72 24 35 27 -10 1 0 5 22 9
l40 7 -39 2 c-38 1 -39 1 -21 21 13 15 32 20 69 21 41 1 46 3 26 9 l-25 8 26
1 c14 1 34 10 44 21 18 20 17 20 -11 21 -25 0 -26 2 -9 9 11 5 38 10 60 11
l40 2 -40 7 -40 7 50 2 c65 2 97 20 40 22 l-40 2 35 4 35 5 -30 14 c-28 13
-24 13 50 8 76 -6 81 -8 110 -42z m129 -3068 c9 -3 13 -10 10 -15 -3 -5 6 -9
21 -9 14 0 28 -7 31 -15 4 -8 12 -15 19 -15 16 0 47 -35 38 -43 -3 -4 0 -7 8
-7 11 0 11 -2 -1 -10 -13 -8 -13 -10 2 -10 23 0 34 -20 17 -31 -9 -5 -10 -9
-2 -9 6 0 10 -11 8 -25 -1 -16 3 -25 12 -25 23 0 9 -25 -15 -28 -30 -5 -28
-22 3 -22 26 0 29 -9 19 -47 -4 -16 -16 -23 -46 -28 l-41 -7 33 -16 c29 -14
30 -17 14 -23 -11 -4 -32 -8 -49 -9 l-30 -2 30 -8 c24 -6 18 -8 -35 -10 l-65
-3 60 -6 60 -6 -34 -17 c-45 -23 -158 -24 -209 -2 -36 16 -37 17 -12 24 24 8
24 8 -6 9 -42 1 -81 46 -89 105 -6 35 -11 46 -26 46 -10 0 -21 5 -24 10 -3 6
2 10 13 10 32 0 34 13 5 26 -21 9 -23 13 -9 13 12 1 16 6 12 16 -3 8 0 15 7
15 8 0 7 3 -2 9 -11 7 -9 10 9 13 35 5 37 28 3 29 -26 2 -26 2 7 9 l35 7 -30
2 c-34 3 -28 6 30 17 l40 8 -35 6 c-35 6 -35 6 20 17 35 7 45 11 27 12 -34 1
-26 21 8 21 18 0 23 4 19 15 -5 12 5 15 59 15 36 0 72 -3 81 -6z m-454 -14 c0
-5 11 -10 24 -10 27 0 91 -54 82 -69 -4 -5 2 -12 11 -14 10 -3 -2 -6 -27 -7
l-45 -3 49 -6 c76 -9 72 -31 -6 -31 -50 0 -69 4 -86 20 -17 16 -34 20 -89 18
-62 -1 -64 -2 -23 -7 42 -6 44 -7 23 -19 -12 -6 -32 -12 -45 -12 -18 0 -20 -2
-8 -10 9 -6 11 -10 3 -10 -7 0 -10 -7 -7 -15 4 -10 0 -15 -12 -16 -14 0 -12
-4 9 -13 29 -13 27 -26 -5 -26 -11 0 -16 -4 -13 -10 3 -5 14 -10 24 -10 12 0
20 -12 27 -37 9 -38 9 -38 67 -41 62 -3 87 8 87 38 0 16 3 16 55 1 54 -16 75
-41 35 -41 -11 0 -20 -4 -20 -10 0 -5 7 -10 15 -10 31 0 14 -19 -22 -25 -55
-10 -62 -13 -28 -16 17 -1 -1 -5 -40 -9 l-70 -6 70 -3 70 -2 -39 -21 c-33 -17
-52 -20 -115 -16 -42 3 -87 10 -101 18 -23 12 -24 14 -5 21 18 7 17 8 -6 8
-24 1 -81 51 -77 68 1 5 -2 25 -6 46 -6 27 -13 37 -27 37 -11 0 -19 5 -19 10
0 6 7 10 15 10 20 0 19 10 -2 26 -13 9 -14 13 -4 14 7 0 11 6 7 15 -3 8 0 15
7 15 8 0 6 4 -3 10 -12 8 -9 10 13 10 41 0 36 30 -5 31 -31 1 -31 2 7 8 66 11
92 40 38 42 -21 1 -15 5 22 14 28 7 40 14 27 14 -13 1 -20 6 -17 11 3 6 40 10
81 10 43 0 74 4 74 10 0 6 7 10 15 10 8 0 15 -4 15 -10z m-521 -22 c18 -11 18
-13 3 -25 -16 -11 -16 -12 1 -13 10 0 17 -8 17 -20 0 -19 -7 -20 -132 -22
l-133 -2 135 -6 135 -6 -100 -3 c-55 -2 -106 -3 -112 -2 -7 1 -13 -3 -13 -9 0
-6 32 -10 83 -10 45 0 89 -5 97 -10 11 -7 11 -10 2 -10 -7 0 -10 -5 -6 -11 3
-6 0 -15 -7 -20 -11 -8 -10 -12 5 -24 19 -15 19 -15 -5 -16 -20 -1 -21 -2 -4
-6 23 -6 44 -23 30 -24 -6 0 -50 -1 -100 -2 l-90 -2 -3 -32 -3 -33 100 0 c61
0 101 -4 101 -10 0 -5 7 -10 15 -10 23 0 18 -18 -7 -26 -22 -7 -22 -7 -3 -15
11 -4 -59 -8 -155 -8 -175 0 -240 8 -192 23 25 8 30 26 7 26 -8 0 -15 5 -15
10 0 6 6 10 13 10 8 0 12 18 13 55 2 50 0 55 -20 56 -11 0 -16 3 -9 5 8 4 9
13 3 30 -7 17 -6 24 3 24 8 0 7 4 -3 10 -13 8 -12 10 3 10 26 0 21 30 -5 31
-22 1 -22 1 2 9 l25 8 -25 2 c-24 2 -24 2 5 13 l30 11 -25 7 -25 6 25 11 c18
8 20 11 8 11 -10 1 -18 6 -18 11 0 15 325 13 349 -2z m1545 -13 c14 -14 23
-32 20 -40 -4 -10 0 -15 12 -16 14 -1 13 -3 -6 -9 l-25 -8 28 -1 c33 -1 38
-31 5 -31 -19 0 -20 -2 -8 -10 12 -8 12 -10 1 -10 -8 0 -11 -3 -8 -7 4 -3 2
-12 -4 -20 -9 -10 -6 -13 12 -13 l24 -1 -24 -19 c-13 -11 -35 -21 -50 -21 -25
-2 -25 -2 -2 -6 17 -3 20 -7 11 -13 -10 -6 -8 -12 9 -26 11 -10 21 -28 21 -39
0 -11 11 -33 25 -48 l26 -27 -73 0 c-40 0 -80 5 -88 10 -8 5 -11 10 -5 10 5 0
-1 7 -14 16 -15 11 -21 23 -18 35 7 25 -28 49 -68 48 -29 0 -29 -1 -7 -11 24
-12 30 -28 10 -28 -7 0 -20 -4 -28 -10 -12 -7 -10 -12 9 -29 22 -19 22 -21 5
-22 -18 0 -18 -1 1 -9 24 -10 -87 -13 -124 -3 -22 6 -23 7 -6 13 18 6 18 7 -3
28 -21 21 -21 21 -1 27 14 5 19 13 16 26 -3 10 -1 19 4 19 5 0 9 7 9 15 0 8
-9 15 -19 15 -11 0 -23 5 -26 10 -4 6 5 10 19 10 16 0 26 6 26 15 0 8 -7 15
-15 15 -11 0 -14 7 -11 25 3 15 0 25 -7 26 -7 0 -2 4 11 10 27 10 21 29 -11
30 -20 1 -20 2 3 9 21 7 22 8 5 10 -18 1 -17 3 5 12 21 9 22 12 7 15 -14 4
-16 8 -6 19 8 10 8 14 0 14 -6 0 -11 5 -11 10 0 6 60 10 160 10 157 0 159 0
184 -25z m427 -6 c26 -25 30 -32 18 -40 -11 -7 -10 -9 6 -10 l20 0 -20 -9
c-19 -8 -19 -9 3 -9 26 -1 31 -31 5 -31 -15 0 -16 -2 -3 -10 9 -6 11 -10 3
-10 -7 0 -10 -6 -7 -14 3 -8 -3 -16 -16 -19 -28 -7 -16 -27 16 -27 43 0 16
-20 -29 -22 l-42 -1 38 -4 c32 -4 35 -6 23 -19 -11 -10 -44 -15 -123 -16
l-108 -2 85 -6 c47 -3 67 -7 45 -8 -44 -2 -125 -30 -125 -43 0 -5 12 -12 26
-15 l27 -7 -24 -12 c-21 -12 -22 -13 -3 -18 10 -2 -10 -5 -46 -5 -36 0 -74 3
-85 8 -14 6 -15 9 -5 10 12 0 11 3 -2 11 -26 15 -22 34 10 49 l27 13 -30 12
c-29 13 -29 13 -6 16 36 6 39 29 4 30 -21 1 -23 3 -8 6 31 8 48 43 21 43 -7 0
-16 9 -19 20 -3 11 0 20 6 20 7 0 5 5 -3 10 -13 8 -12 10 3 10 26 0 21 30 -5
31 -22 1 -22 1 2 9 l25 8 -25 2 c-21 2 -22 3 -5 7 32 8 42 23 15 23 -23 0 -23
0 -4 15 11 8 14 15 7 15 -7 0 -13 5 -13 10 0 6 55 10 144 10 l144 0 33 -31z"/>
<path d="M9705 3711 c49 -6 49 -6 22 -18 -15 -7 -38 -13 -50 -13 -18 0 -19 -2
-7 -10 8 -5 10 -10 5 -10 -6 0 -11 -9 -11 -20 0 -11 6 -20 13 -20 21 0 15 -21
-7 -27 -25 -7 -26 -23 -1 -23 13 0 21 -10 25 -34 8 -40 26 -47 100 -39 54 6
66 15 66 51 0 17 -6 22 -25 22 -14 0 -25 5 -25 10 0 6 9 10 19 10 24 0 38 19
22 30 -7 4 -13 17 -14 28 -1 12 -5 22 -10 22 -4 0 -6 4 -3 8 3 5 -4 16 -15 25
-14 13 -36 17 -87 15 -66 -1 -66 -1 -17 -7z"/>
</g>
</svg>
